<?xml version="1.0" encoding="UTF-8"?>
<svg version="1.1" xmlns="http://www.w3.org/2000/svg" width="250" height="250">
<path d="M0 0 C82.5 0 165 0 250 0 C250 82.5 250 165 250 250 C167.5 250 85 250 0 250 C0 167.5 0 85 0 0 Z " fill="#F8F5D6" transform="translate(0,0)"/>
<path d="M0 0 C2.73795366 -0.00217643 5.47549662 -0.02036532 8.21337891 -0.03930664 C23.37883842 -0.08877984 38.15818513 1.03998547 53.01416016 4.24780273 C53.85333984 4.42118164 54.69251953 4.59456055 55.55712891 4.77319336 C59.1068076 5.51200208 62.62047491 6.30563142 66.13916016 7.18530273 C66.13916016 25.33530273 66.13916016 43.48530273 66.13916016 62.18530273 C58.43123936 62.18530273 58.43123936 62.18530273 54.32666016 60.81030273 C48.35968277 59.04600816 42.41610169 58.42008482 36.24536133 57.83227539 C33.04981817 57.52537635 30.19682892 57.20452565 27.13916016 56.18530273 C25.77826038 56.08511219 24.41310554 56.0371035 23.04858398 56.02416992 C22.22455078 56.01469833 21.40051758 56.00522675 20.55151367 55.99546814 C19.65875732 55.99108231 18.76600098 55.98669647 17.84619141 55.98217773 C16.91564941 55.97525406 15.98510742 55.96833038 15.02636719 55.9611969 C12.00142261 55.94382968 8.97665238 55.93759826 5.95166016 55.93530273 C4.92906097 55.93396332 3.90646179 55.9326239 2.85287476 55.9312439 C-23.59138734 55.81801061 -23.59138734 55.81801061 -49.23706055 61.58837891 C-51.86083984 62.18530273 -51.86083984 62.18530273 -59.86083984 62.18530273 C-59.86083984 44.03530273 -59.86083984 25.88530273 -59.86083984 7.18530273 C-55.83437934 5.84314923 -52.53199068 4.83614847 -48.44677734 4.15014648 C-47.43744141 3.98063477 -46.42810547 3.81112305 -45.38818359 3.63647461 C-44.34791016 3.46696289 -43.30763672 3.29745117 -42.23583984 3.12280273 C-41.21876953 2.94942383 -40.20169922 2.77604492 -39.15380859 2.59741211 C-26.08375908 0.43563586 -13.21874969 -0.00117125 0 0 Z " fill="#1F1F1E" transform="translate(121.86083984375,125.814697265625)"/>
<path d="M0 0 C4.43856438 0.63408063 8.87443366 1.27475516 13.30859375 1.9375 C14.46810547 2.11023438 15.62761719 2.28296875 16.82226562 2.4609375 C19.22860065 2.81974272 21.63485106 3.17911593 24.04101562 3.5390625 C25.20181641 3.71179688 26.36261719 3.88453125 27.55859375 4.0625 C28.60329834 4.21847656 29.64800293 4.37445313 30.72436523 4.53515625 C31.80532471 4.68855469 32.88628418 4.84195313 34 5 C35.90616089 5.27130737 35.90616089 5.27130737 37.85083008 5.5480957 C42.1817729 6.07894447 46.46866508 6.16110018 50.828125 6.16796875 C51.65095978 6.17220352 52.47379456 6.17643829 53.32156372 6.18080139 C55.96442863 6.19062599 58.60712019 6.19073435 61.25 6.1875 C62.60124969 6.18659363 62.60124969 6.18659363 63.97979736 6.18566895 C81.0805994 6.15440396 97.43862803 5.47536196 114.09521484 1.32128906 C118.33491064 0.27055162 121.51626055 0 126 0 C126 18.15 126 36.3 126 55 C86.73048541 68.0898382 39.50975614 64.11763603 0 55 C0 36.85 0 18.7 0 0 Z " fill="#1F1E1E" transform="translate(62,62)"/>
<path d="M0 0 C-10.89881158 6.44631808 -21.53602 5.3913275 -33.75 4.8125 C-35.71865934 4.73906434 -37.68741175 4.66808076 -39.65625 4.59960938 C-44.4390421 4.42799493 -49.21935071 4.22323709 -54 4 C-54 3.34 -54 2.68 -54 2 C-52.52744751 1.970271 -52.52744751 1.970271 -51.02514648 1.93994141 C-47.30666728 1.86261242 -43.5885165 1.77411793 -39.87036133 1.68261719 C-38.27537623 1.64484333 -36.68032073 1.60991143 -35.08520508 1.578125 C-25.59927307 1.38691251 -16.39623223 0.84037436 -7.02368164 -0.68212891 C-4.27331118 -0.97126757 -2.57734154 -0.90284238 0 0 Z " fill="#D0CFC3" transform="translate(166,122)"/>
<path d="M0 0 C1.09731445 0.07831055 1.09731445 0.07831055 2.21679688 0.15820312 C3.99918622 0.28634876 5.7809257 0.4234816 7.5625 0.5625 C7.5625 1.2225 7.5625 1.8825 7.5625 2.5625 C-4.3175 3.5525 -4.3175 3.5525 -16.4375 4.5625 C-16.1075 3.2425 -15.7775 1.9225 -15.4375 0.5625 C-10.14096121 -0.37709624 -5.35081483 -0.42591115 0 0 Z " fill="#E7E7D6" transform="translate(104.4375,123.4375)"/>
<path d="M0 0 C0 0.99 0 1.98 0 3 C0.99 3.66 1.98 4.32 3 5 C3.33 5.66 3.66 6.32 4 7 C1.37348569 6.71880143 -1.25069335 6.42556162 -3.875 6.125 C-4.62136719 6.04636719 -5.36773437 5.96773437 -6.13671875 5.88671875 C-11.7734375 5.2265625 -11.7734375 5.2265625 -14 3 C-9.07015675 0.96006486 -5.42039575 -0.40652968 0 0 Z " fill="#E9E7CD" transform="translate(168,123)"/>
<path d="M0 0 C-1.32 0.33 -2.64 0.66 -4 1 C-4 1.66 -4 2.32 -4 3 C-3.34 3.33 -2.68 3.66 -2 4 C-4.31 3.67 -6.62 3.34 -9 3 C-7.14340032 -0.71319936 -3.69365381 -0.09982848 0 0 Z M-7 4 C-6.34 4.66 -5.68 5.32 -5 6 C-5.99 5.67 -6.98 5.34 -8 5 C-7.67 4.67 -7.34 4.34 -7 4 Z " fill="#E5E2C9" transform="translate(82,120)"/>
<path d="M0 0 C6.93 0.495 6.93 0.495 14 1 C14 1.33 14 1.66 14 2 C10.7 2.33 7.4 2.66 4 3 C4 2.34 4 1.68 4 1 C2.68 0.67 1.36 0.34 0 0 Z " fill="#CCCBB7" transform="translate(82,121)"/>
<path d="M0 0 C0 0.66 0 1.32 0 2 C-3.375 2.625 -3.375 2.625 -7 3 C-7.66 2.34 -8.32 1.68 -9 1 C-5.92677456 0.08941469 -3.19902639 -0.08886184 0 0 Z " fill="#2F3027" transform="translate(85,129)"/>
</svg>
