<?xml version="1.0" encoding="UTF-8"?>
<svg version="1.1" xmlns="http://www.w3.org/2000/svg" width="293" height="293">
<path d="M0 0 C1.92213332 -0.00379286 3.84426389 -0.00930081 5.76638794 -0.01637268 C10.93775462 -0.03021562 16.10878443 -0.01923796 21.28013206 -0.00266147 C26.71791006 0.01129417 32.15567058 0.0047173 37.59346008 0.00120544 C46.71779749 -0.00148773 55.84200266 0.01190422 64.96630859 0.03515625 C75.48763552 0.06178422 86.00874188 0.06350207 96.53009099 0.05176789 C106.69197747 0.04095933 116.85378483 0.04719976 127.01566505 0.06132317 C131.32275088 0.06705389 135.62977824 0.06702342 139.93686485 0.06225777 C145.01371078 0.05745733 150.09031756 0.06771571 155.16711807 0.08921242 C157.02094148 0.09473802 158.87478807 0.09528488 160.7286129 0.09025955 C179.618686 0.04550389 196.0409047 2.73541209 210.30981445 16.27124023 C224.16857976 31.75725783 225.61061124 48.6588082 225.58056641 68.42871094 C225.58492018 70.32877807 225.59010554 72.22884344 225.59605408 74.12890625 C225.60938438 79.26334862 225.61002937 84.39771711 225.60749078 89.5321734 C225.60641691 93.83102955 225.61131509 98.129871 225.6160962 102.42872399 C225.62717096 112.57765672 225.62764037 122.72655244 225.62158203 132.87548828 C225.61554474 143.31658421 225.62785177 153.7575453 225.6491521 164.19861823 C225.66681342 173.18922667 225.67276229 182.17979236 225.66951436 191.17041749 C225.66770842 196.5284827 225.67026838 201.88645174 225.6842289 207.24450111 C225.69687639 212.28678709 225.69479813 217.3288641 225.68181801 222.37114716 C225.6794676 224.21165477 225.68213116 226.05217741 225.69044113 227.89266777 C225.77057962 247.03619856 223.4512391 263.8763643 209.5871582 278.31811523 C199.04710322 288.40696924 186.32513093 293.83516767 171.71122742 293.7624054 C170.88319211 293.76623094 170.05515681 293.77005649 169.20202953 293.77399796 C166.44712043 293.78425802 163.69242249 293.78034917 160.9375 293.77636719 C158.95419117 293.78071757 156.97088402 293.78590181 154.98757935 293.79185486 C149.61349994 293.80522192 144.23949096 293.805826 138.86539817 293.80329156 C134.37255439 293.80222015 129.87972477 293.80710964 125.38688403 293.81189698 C114.78313974 293.82298455 104.17943088 293.82343399 93.57568359 293.81738281 C82.65232929 293.81134488 71.72910385 293.82365123 60.80577153 293.84495288 C51.41357565 293.86259228 42.02142069 293.86856649 32.62920886 293.86531514 C27.02583328 293.86350565 21.4225496 293.86610501 15.81918907 293.88002968 C10.54713789 293.89264119 5.27528693 293.89063246 0.00323868 293.87761879 C-1.92560457 293.87526058 -3.85446205 293.87796044 -5.78328896 293.88624191 C-23.48787907 293.95674303 -39.27851457 291.49249172 -52.66674805 278.68530273 C-59.61460538 271.20196507 -63.52485946 263.16655801 -66.6940918 253.50170898 C-66.87555346 252.9501007 -67.05701513 252.39849241 -67.24397564 251.83016872 C-67.91571392 248.35525336 -67.84210344 244.88919636 -67.84126282 241.36354065 C-67.84493951 240.53625062 -67.84861619 239.7089606 -67.8524043 238.85660118 C-67.86343069 236.08017576 -67.86728327 233.30378778 -67.87109375 230.52734375 C-67.87735938 228.53801861 -67.88400626 226.54869464 -67.89100647 224.55937195 C-67.91204404 218.02062799 -67.92241114 211.48188382 -67.93237305 204.94311523 C-67.93642124 202.68983383 -67.94053818 200.43655256 -67.94472313 198.18327141 C-67.96377707 187.59264049 -67.97800558 177.00201653 -67.9863351 166.41137177 C-67.99609738 154.20144048 -68.02238978 141.99169097 -68.06283599 129.78182369 C-68.09304713 120.33618125 -68.10780887 110.89059074 -68.11111611 101.44490093 C-68.11346161 95.80782089 -68.12235652 90.17093498 -68.14757729 84.53390694 C-68.17094929 79.2241204 -68.17505458 73.91465454 -68.1648159 68.60482979 C-68.16432259 66.66391937 -68.17058223 64.72299269 -68.18437195 62.7821312 C-68.30240675 45.17288167 -65.65278654 29.62188465 -53.0690918 16.25170898 C-37.7017209 1.84479877 -20.06190205 -0.1142826 0 0 Z " fill="#DEBC53" transform="translate(67.694091796875,-0.501708984375)"/>
<path d="M0 0 C8.03975072 6.7221588 15.50509985 16.51199673 16.54199219 27.29125977 C17.02291684 37.58443845 17.41399837 47.77030707 12.32421875 57.02734375 C11.91171875 57.79820312 11.49921875 58.5690625 11.07421875 59.36328125 C5.03311376 69.42034808 -3.73279822 76.08720765 -14.67578125 80.02734375 C-15.35253906 80.27226562 -16.02929688 80.5171875 -16.7265625 80.76953125 C-27.79516648 84.11532044 -39.36174549 81.93557981 -49.73828125 77.40234375 C-61.3131898 71.15141778 -69.32732056 60.24763329 -73.67578125 48.02734375 C-76.62278242 36.21956056 -74.97320501 24.86359285 -69.67578125 14.02734375 C-62.89546919 2.85581221 -52.36025966 -5.47830358 -39.86328125 -9.28515625 C-25.05077249 -12.43356398 -11.96365082 -8.81991776 0 0 Z " fill="#272725" transform="translate(222.67578125,137.97265625)"/>
<path d="M0 0 C12.91284107 6.55575008 21.29197484 15.73629069 26.25 29.4375 C28.93467742 38.8855467 28.66011256 51.63385426 24.25 60.4375 C23.82460937 61.33855469 23.39921875 62.23960937 22.9609375 63.16796875 C16.7136945 75.54552773 7.14925927 82.6318936 -5.75 87.4375 C-16.4544333 90.10890515 -27.89182292 89.33597308 -37.75 84.4375 C-38.60078125 84.025 -39.4515625 83.6125 -40.328125 83.1875 C-51.77451247 77.00785523 -59.24503286 66.95380352 -63.19042969 54.69824219 C-66.1356853 42.79899829 -64.31520281 30.66296897 -58.4296875 20.05859375 C-46.24131471 0.37736883 -21.99800422 -9.05941904 0 0 Z " fill="#272625" transform="translate(116.75,76.5625)"/>
<path d="M0 0 C6.32760344 4.67460591 11.57862904 9.86518984 15 17 C15.31710938 17.65097656 15.63421875 18.30195312 15.9609375 18.97265625 C20.06495374 29.04443921 18.99807722 40.28583663 14.875 50.12109375 C14.58625 50.74113281 14.2975 51.36117187 14 52 C10.10391502 50.51095825 6.40902982 48.75621287 2.6875 46.875 C1.61886719 46.33617187 0.55023438 45.79734375 -0.55078125 45.2421875 C-1.35902344 44.83226562 -2.16726562 44.42234375 -3 44 C-2.76410156 42.92685547 -2.76410156 42.92685547 -2.5234375 41.83203125 C-1.34751197 35.46974757 -0.76814736 29.28643201 -4.1875 23.5625 C-7.13329281 19.4901292 -10.1737115 16.60876283 -15 15 C-20.81112953 14.52673044 -26.14773588 14.14002023 -31.5 16.625 C-36.32512688 21.20887054 -39.7881286 24.76257192 -40.1328125 31.65625 C-40.12894531 33.06390625 -40.12894531 33.06390625 -40.125 34.5 C-40.12757813 35.4384375 -40.13015625 36.376875 -40.1328125 37.34375 C-40.01392868 39.7214263 -39.67551722 41.72683096 -39 44 C-41.269616 45.14829977 -43.54060778 46.29371978 -45.8125 47.4375 C-46.45509766 47.76298828 -47.09769531 48.08847656 -47.75976562 48.42382812 C-50.48265466 49.79232676 -53.10449794 51.03483265 -56 52 C-60.63581542 42.23167465 -61.74381856 32.16810035 -59.1875 21.66015625 C-55.30209372 11.17765388 -48.13218341 3.70281329 -38.5546875 -1.84375 C-26.4198611 -7.33596501 -11.38716917 -7.03517635 0 0 Z " fill="#272625" transform="translate(215,79)"/>
<path d="M0 0 C7.30188521 6.04011944 10.4090676 12.68160842 11.4375 21.9375 C11.06270056 29.79267166 7.28834667 36.65892202 2.00390625 42.30859375 C-3.41457567 46.88208824 -10.71952167 49.34882832 -17.7578125 49.20703125 C-25.88622951 48.45649797 -31.47808556 44.85999083 -37 39 C-41.92033634 32.65535577 -43.54778776 26.82323682 -43.375 18.875 C-42.30358054 10.66078413 -37.35953828 4.06224887 -31 -1 C-20.55594354 -7.26643387 -10.27091308 -5.91439156 0 0 Z " fill="#DDBC53" transform="translate(210,152)"/>
<path d="M0 0 C6.01211374 6.01211374 8.94398223 11.84251182 9.1875 20.375 C9.10475941 28.40083717 7.28955508 33.82144548 2.015625 39.875 C-4.02257836 45.67167522 -10.35160113 47.8580457 -18.625 48.3125 C-25.61018319 48.07803231 -31.08228048 45.60778236 -36.26171875 40.9453125 C-43.21983899 33.44746386 -44.79543063 27.31727768 -44.52734375 17.18359375 C-43.66378308 8.61746891 -38.66150265 3.17667362 -32.1875 -2.1875 C-22.45399694 -8.41694196 -9.12797815 -6.26429873 0 0 Z " fill="#DBB851" transform="translate(116.1875,98.1875)"/>
<path d="M0 0 C6.27 0 12.54 0 19 0 C19.99 2.97 20.98 5.94 22 9 C25.10524183 14.67509714 28.82835198 17.94278399 35 20 C41.5376157 20.78657704 46.58339446 19.79280913 52 16 C57.05110453 11.28563578 58.29449187 6.64250533 60 0 C66.27 0 72.54 0 79 0 C78.8530324 10.87560212 75.16836706 20.83083069 67.8125 29 C59.38590704 36.51355354 48.062078 40.51717497 36.89453125 40.2421875 C25.55099844 39.293066 17.03549008 34.44864523 9.1875 26.3125 C3.0388672 18.89925478 0 9.44762459 0 0 Z " fill="#2A2826" transform="translate(59,180)"/>
</svg>
