<?xml version="1.0" encoding="UTF-8"?>
<svg version="1.1" xmlns="http://www.w3.org/2000/svg" width="64" height="64">
<path d="M0 0 C2.59875 0.495 2.59875 0.495 5.25 1 C18.85422174 3.07924786 32.51031187 2.56946441 46 0 C46 6.6 46 13.2 46 20 C39.57281654 21.60679587 36.17791452 22.2206398 30 22 C30 22.66 30 23.32 30 24 C31.155 23.95875 32.31 23.9175 33.5 23.875 C38.15673846 23.70868791 41.0589514 24.76473785 46 26 C46 32.6 46 39.2 46 46 C44.2675 45.67 42.535 45.34 40.75 45 C27.14577826 42.92075214 13.48968813 43.43053559 0 46 C0 39.4 0 32.8 0 26 C6.42718346 24.39320413 9.82208548 23.7793602 16 24 C16 23.34 16 22.68 16 22 C14.845 22.04125 13.69 22.0825 12.5 22.125 C7.84326154 22.29131209 4.9410486 21.23526215 0 20 C0 13.4 0 6.8 0 0 Z " fill="#1E1E1E" transform="translate(9,9)"/>
</svg>
